<?xml version="1.0" standalone="no"?>
<!DOCTYPE svg PUBLIC "-//W3C//DTD SVG 20010904//EN"
 "http://www.w3.org/TR/2001/REC-SVG-20010904/DTD/svg10.dtd">
<svg version="1.0" xmlns="http://www.w3.org/2000/svg"
 width="889.000000pt" height="889.000000pt" viewBox="0 0 889.000000 889.000000"
 preserveAspectRatio="xMidYMid meet">
<metadata>
Created by potrace 1.14, written by Peter Selinger 2001-2017
</metadata>
<g transform="translate(0.000000,889.000000) scale(0.100000,-0.100000)"
fill="#000000" stroke="none">
<path d="M4285 8344 c-354 -28 -580 -62 -810 -124 -598 -158 -1197 -477 -1701
-905 -367 -310 -757 -823 -1007 -1321 -209 -416 -338 -872 -372 -1306 -8 -100
-12 -95 76 -74 55 12 59 12 119 -16 35 -15 64 -28 65 -28 1 0 8 35 15 77 59
370 272 820 569 1208 103 134 367 425 386 425 5 0 6 -2 3 -5 -3 -4 -1 -25 4
-48 11 -48 11 -46 32 -151 9 -44 19 -83 22 -88 3 -4 -7 -13 -23 -18 -73 -26
-100 -44 -123 -77 -87 -127 -54 -285 56 -270 73 10 161 119 165 203 1 45 -7
113 -21 164 -6 19 -19 73 -29 120 -54 234 -60 201 59 309 56 50 128 110 160
132 67 47 83 81 51 112 -19 20 -20 19 -116 -47 -53 -37 -122 -90 -155 -117
-33 -27 -63 -49 -68 -49 -5 0 -12 19 -16 42 -7 41 -6 43 56 106 74 74 222 206
328 291 l75 60 17 -72 c9 -40 20 -88 23 -107 3 -19 10 -51 15 -70 5 -19 11
-46 14 -60 2 -14 17 -81 32 -150 35 -164 35 -174 4 -178 -84 -10 -160 -119
-160 -230 0 -57 3 -67 29 -93 51 -51 115 -33 183 52 40 50 58 96 58 147 0 19
-18 114 -41 211 -22 97 -43 187 -45 201 -3 14 -7 33 -10 42 -3 10 -7 29 -10
42 -2 13 -18 83 -34 156 -16 73 -27 136 -24 141 3 5 51 40 107 78 514 343
1087 549 1747 628 109 13 230 17 490 17 l345 1 6 -35 c3 -19 25 -123 49 -230
23 -107 43 -199 44 -205 2 -5 8 -37 15 -70 7 -33 16 -73 21 -90 5 -16 11 -47
14 -67 3 -21 7 -43 8 -49 2 -7 -15 -17 -36 -22 -57 -14 -129 -89 -144 -149
-16 -63 -15 -113 3 -148 29 -56 80 -65 140 -24 111 75 139 172 97 339 -12 44
-33 132 -47 195 -15 63 -28 124 -31 135 -3 11 -9 40 -14 65 -5 25 -18 86 -29
135 -11 50 -22 101 -24 115 -3 14 -8 37 -12 52 -5 21 -2 29 13 37 32 17 233
-12 529 -76 25 -6 31 -22 64 -168 33 -149 32 -157 -14 -168 -48 -12 -109 -70
-130 -125 -10 -23 -17 -69 -17 -101 0 -51 4 -63 29 -90 49 -52 107 -38 179 44
46 52 67 121 59 188 -4 23 -22 112 -43 197 -43 186 -46 203 -31 197 7 -2 82
-25 168 -52 l156 -48 -8 -46 c-4 -25 -10 -68 -13 -96 -6 -44 -14 -104 -30
-215 -3 -19 -10 -71 -17 -115 -6 -44 -13 -91 -14 -105 -2 -22 -13 -97 -31
-218 -6 -42 -24 -48 -77 -28 -114 43 -246 -16 -308 -137 -26 -50 -27 -136 -3
-178 71 -121 295 -75 371 76 21 42 41 123 48 197 3 24 9 72 14 108 13 81 19
126 31 215 5 39 11 79 14 90 2 11 7 47 10 80 4 33 9 67 11 75 2 8 7 42 11 75
3 33 8 67 9 75 17 131 19 134 65 102 164 -113 222 -360 142 -599 -17 -51 -47
-121 -67 -156 -36 -67 -42 -87 -25 -87 24 0 116 177 150 290 37 126 33 294
-10 418 -11 31 -18 57 -16 59 12 12 416 -211 416 -229 0 -5 -11 -24 -24 -41
-37 -50 -76 -143 -101 -242 l-22 -90 -121 -60 c-127 -63 -178 -106 -222 -189
-67 -126 -59 -326 19 -448 30 -47 102 -108 128 -108 16 0 17 4 -7 -86 -38
-142 -83 -207 -140 -207 -36 0 -83 32 -89 59 -3 15 -1 16 11 7 23 -20 81 15
94 56 12 37 2 94 -20 116 -37 37 -94 22 -126 -32 -53 -89 3 -227 103 -254 36
-10 47 -9 77 7 60 33 109 126 135 259 11 58 16 65 41 65 58 0 122 53 164 137
34 67 39 201 9 259 -20 38 -53 74 -84 91 -12 7 -13 16 -5 43 6 19 13 48 16 64
7 42 21 64 46 72 40 12 136 93 170 142 37 54 84 165 93 219 12 68 11 68 83 17
163 -116 312 -244 529 -453 89 -86 182 -174 206 -196 25 -22 43 -45 40 -51 -2
-6 30 -52 72 -101 41 -50 75 -94 75 -97 0 -4 -59 54 -131 128 -72 75 -140 138
-151 142 -26 8 -38 -10 -38 -55 0 -27 8 -42 40 -72 22 -21 34 -39 28 -41 -7
-3 64 -87 157 -187 94 -100 201 -224 238 -274 231 -309 418 -717 482 -1052 10
-49 21 -94 25 -98 4 -5 33 -1 64 8 57 17 133 17 170 0 18 -8 19 -4 12 91 -45
658 -329 1417 -739 1972 -34 45 -65 82 -69 82 -4 0 -8 5 -8 11 0 22 -190 236
-336 379 -231 225 -471 408 -761 581 -177 105 -598 309 -770 373 -352 130
-715 212 -1087 246 -124 11 -437 20 -511 14z m-2715 -1961 c-15 -12 -93 -90
-175 -174 -81 -84 -142 -142 -135 -128 20 37 202 277 262 343 l53 60 11 -39
c10 -37 9 -41 -16 -62z"/>
<path d="M2606 6943 c-3 -16 -8 -50 -12 -78 -3 -27 -8 -58 -10 -69 -2 -10 -6
-44 -10 -75 -3 -31 -8 -58 -9 -61 -2 -3 -6 -34 -10 -70 -4 -36 -8 -72 -10 -80
-2 -9 -6 -43 -10 -75 -4 -33 -9 -69 -12 -80 -2 -11 -6 -38 -9 -60 -2 -22 -9
-67 -14 -100 -5 -33 -12 -80 -15 -105 -3 -25 -8 -56 -10 -70 -7 -51 -15 -106
-20 -150 -4 -25 -8 -57 -10 -71 -3 -14 -7 -43 -10 -64 -7 -56 -17 -62 -72 -42
-116 41 -223 1 -301 -114 -27 -40 -33 -57 -33 -108 -2 -134 97 -194 242 -146
45 15 91 52 136 108 19 23 51 149 59 225 3 37 8 70 10 73 2 4 6 31 9 61 3 30
7 63 9 74 2 11 7 47 11 79 4 33 9 71 11 85 9 46 34 224 39 270 2 25 7 56 9 70
3 14 8 42 11 64 3 21 8 42 10 47 10 15 55 -10 99 -56 89 -95 127 -206 123
-359 -2 -56 -9 -111 -16 -123 -6 -13 -10 -23 -7 -23 14 0 -59 -175 -101 -242
-27 -44 -12 -65 19 -27 32 40 115 220 134 289 31 118 19 340 -23 420 -7 14
-13 29 -13 33 0 4 -25 61 -57 125 -66 137 -69 146 -79 192 -4 19 -9 42 -11 50
-3 8 -6 55 -7 104 -2 68 -7 91 -19 97 -12 7 -17 3 -21 -18z"/>
<path d="M3293 6215 c-48 -20 -100 -82 -138 -160 -30 -64 -42 -100 -74 -222
-11 -42 -14 -44 -126 -97 -127 -60 -186 -111 -225 -193 -87 -182 -44 -424 91
-523 23 -16 48 -30 56 -30 16 0 13 -21 -24 -139 -33 -104 -82 -164 -129 -155
-36 6 -70 28 -84 54 -10 18 -8 19 13 11 33 -13 84 19 93 56 3 15 7 33 9 38 4
16 -24 77 -42 90 -21 15 -68 11 -87 -8 -69 -68 -60 -186 19 -255 63 -56 116
-54 172 5 42 44 84 142 99 233 9 51 15 60 40 60 34 0 83 27 118 64 47 52 68
112 72 204 3 73 0 90 -21 132 -19 38 -52 72 -92 95 -1 0 2 17 7 36 6 18 14 53
20 75 9 37 18 46 76 80 37 22 82 57 101 79 35 40 97 135 88 135 -2 0 3 17 12
38 43 100 52 273 17 299 -21 16 -21 16 -61 -2z"/>
<path d="M4059 5578 c-37 -139 -46 -178 -41 -183 3 -3 1 -5 -5 -5 -5 0 -10 -6
-11 -12 -2 -32 -15 -85 -23 -100 -5 -10 -7 -18 -5 -18 3 0 1 -11 -4 -25 -5
-14 -12 -38 -15 -53 -8 -38 -13 -57 -15 -57 -1 0 -3 -11 -6 -25 -2 -14 -9 -36
-14 -50 -5 -14 -12 -40 -15 -59 -3 -19 -8 -38 -11 -43 -3 -4 -7 -16 -9 -25 -1
-10 -10 -45 -19 -78 -15 -54 -19 -71 -31 -125 -2 -8 -4 -15 -5 -15 -1 0 -3 -7
-5 -15 -2 -8 -16 -60 -30 -115 -15 -55 -29 -107 -30 -115 -2 -8 -4 -15 -5 -15
-1 0 -3 -7 -5 -15 -1 -8 -8 -35 -15 -60 -7 -25 -14 -52 -16 -60 -2 -8 -13 -49
-24 -90 -11 -41 -23 -86 -26 -100 -2 -14 -7 -32 -10 -40 -6 -17 -82 -303 -90
-337 -2 -12 -9 -34 -14 -48 -5 -14 -7 -25 -4 -25 2 0 0 -9 -6 -19 -5 -11 -13
-37 -16 -58 -3 -21 -8 -41 -11 -45 -4 -8 -10 -31 -19 -73 -2 -11 -20 -78 -39
-150 -20 -71 -37 -137 -39 -145 -2 -8 -6 -22 -9 -30 -4 -8 -9 -26 -11 -40 -3
-14 -5 -25 -7 -25 -1 0 -3 -9 -5 -20 -1 -11 -19 -78 -39 -150 -20 -71 -38
-139 -40 -150 -12 -52 -45 -177 -52 -195 -3 -8 -5 -19 -4 -24 1 -4 -3 -14 -9
-20 -5 -7 -8 -15 -5 -17 2 -3 -3 -27 -11 -54 -8 -28 -17 -57 -19 -65 -2 -8
-13 -51 -24 -95 -12 -44 -24 -88 -26 -98 -3 -9 -7 -25 -9 -35 -7 -26 -33 -123
-45 -160 -5 -18 -10 -35 -11 -37 -9 -48 -14 -66 -21 -71 -5 -3 -7 -10 -3 -15
3 -5 1 -24 -5 -42 -6 -17 -11 -34 -10 -37 0 -3 -5 -18 -11 -35 -7 -16 -14 -39
-16 -50 -2 -11 -20 -62 -40 -113 -46 -115 -96 -174 -172 -201 -31 -12 -49 -15
-45 -8 4 7 -1 6 -10 -2 -9 -7 -17 -10 -17 -7 0 4 -9 2 -19 -4 -12 -6 -21 -6
-23 0 -2 6 -9 6 -18 0 -11 -7 -14 -33 -15 -115 0 -59 3 -109 7 -111 5 -3 3
-14 -2 -25 -6 -10 -9 -19 -8 -19 36 -5 188 -1 196 4 7 4 12 4 12 -1 0 -10 453
-9 469 1 6 4 11 4 11 -1 0 -7 65 -7 250 -3 13 0 16 21 16 134 0 153 7 143 -93
140 -41 -1 -63 3 -63 10 0 6 -5 4 -10 -4 -5 -8 -10 -10 -10 -5 0 6 -10 11 -22
12 -11 1 -25 8 -29 15 -5 7 -9 9 -9 4 0 -14 -37 28 -59 68 -19 33 -36 156 -22
156 4 0 7 10 7 23 1 30 9 70 29 142 9 33 19 71 21 85 3 14 14 56 25 95 10 38
19 71 19 73 0 3 2 14 4 27 1 6 5 17 8 25 5 13 70 269 83 325 4 16 63 252 80
315 2 8 4 17 4 20 1 4 117 6 260 6 l258 0 -1 -211 c0 -115 3 -246 7 -290 5
-44 10 -98 12 -120 2 -22 6 -50 9 -62 2 -11 8 -43 12 -70 5 -26 9 -50 9 -53 1
-3 5 -23 10 -45 13 -56 12 -54 15 -60 1 -3 4 -9 5 -15 1 -5 4 -13 5 -17 1 -5
3 -12 4 -18 1 -5 5 -17 8 -25 4 -8 17 -44 29 -80 12 -36 29 -75 37 -87 8 -13
12 -23 8 -23 -3 0 8 -23 24 -50 17 -28 30 -55 30 -60 0 -6 4 -10 10 -10 5 0 9
-3 8 -8 -3 -10 65 -112 74 -112 5 0 8 -6 8 -12 1 -7 19 -31 40 -53 22 -22 40
-43 40 -47 0 -5 4 -8 9 -8 5 0 23 -12 39 -28 45 -41 62 -54 62 -45 0 4 4 3 8
-3 13 -18 76 -52 112 -59 19 -4 40 -11 45 -15 11 -8 9 -8 132 -13 50 -1 89 1
87 5 -3 4 8 8 25 8 16 0 32 4 36 9 3 5 83 9 179 9 95 0 179 2 185 6 6 4 11 4
11 -1 0 -9 448 -8 457 1 3 3 14 1 24 -4 12 -7 20 -7 24 0 4 6 10 8 14 6 7 -5
220 -9 303 -7 l28 1 -1 110 c0 77 -4 110 -12 111 -7 0 -51 2 -99 4 -93 3 -148
21 -181 59 -27 30 -64 106 -72 146 -17 91 -16 -74 -12 2122 1 544 5 828 12
828 6 0 6 3 0 8 -14 9 -14 155 0 164 7 5 6 8 -1 8 -7 0 -10 13 -7 33 2 17 3
41 3 52 -1 19 -1 58 0 88 1 6 -1 24 -3 40 -2 15 0 27 5 27 5 0 6 5 2 12 -11
17 -11 58 -1 58 4 0 5 6 0 13 -9 15 -10 35 -2 68 4 15 3 32 -1 40 -5 7 -5 20
0 29 4 8 4 22 0 31 -5 8 -5 21 0 29 5 8 5 21 -1 31 -6 12 -5 20 1 24 6 4 7 11
3 18 -10 16 -10 57 0 57 4 0 3 8 -2 18 -5 9 -10 19 -12 22 -1 3 3 15 10 28 8
15 8 22 1 22 -8 0 -8 6 0 20 8 14 8 20 0 20 -8 0 -8 6 0 20 8 14 8 20 0 20 -7
0 -8 6 -2 18 10 20 9 62 -1 78 -9 15 -60 15 -69 0 -5 -6 -8 -7 -8 -1 0 6 -17
10 -37 9 -21 -1 -38 -3 -38 -4 0 -1 -8 -3 -17 -5 -10 -2 -18 1 -18 7 0 7 -4 7
-12 1 -7 -5 -49 -11 -92 -12 -44 -1 -85 -6 -91 -11 -6 -5 -17 -5 -24 0 -8 4
-26 6 -40 3 -14 -3 -67 -6 -117 -7 -49 -1 -94 -5 -100 -8 -5 -2 -30 -4 -56 -3
-38 2 -48 -1 -49 -14 -6 -84 -3 -203 5 -208 6 -4 53 -8 106 -10 156 -5 171 -9
240 -75 39 -37 68 -120 68 -195 -1 -33 2 -66 6 -72 4 -6 4 -11 -1 -11 -4 0 -8
-329 -8 -730 0 -402 -3 -738 -7 -748 -4 -11 -7 -12 -7 -3 -1 14 -80 181 -91
191 -3 3 -22 31 -44 63 -21 31 -43 57 -49 57 -6 0 -8 2 -5 5 6 7 -79 95 -92
95 -5 0 -16 10 -25 23 -8 12 -16 20 -18 18 -1 -2 -20 5 -42 16 -44 23 -95 40
-139 47 -16 3 -31 7 -34 10 -2 3 -13 1 -23 -5 -11 -5 -19 -6 -19 -2 0 4 -11 8
-25 8 -14 0 -25 -2 -25 -5 0 -3 -12 -5 -27 -4 -27 1 -38 17 -47 71 -2 16 -5
29 -6 31 -2 1 -3 5 -4 10 -1 4 -8 30 -15 58 -7 29 -14 58 -15 65 -2 8 -6 21
-9 29 -4 13 -11 37 -23 85 -1 6 -14 57 -29 115 -16 58 -28 111 -28 118 0 6 -3
12 -7 12 -3 0 -6 8 -6 18 -1 16 -50 204 -73 280 -5 18 -10 35 -10 37 -1 3 -2
7 -2 10 -1 3 -3 14 -4 25 -1 11 -4 22 -5 25 -1 3 -3 8 -5 13 -1 4 -4 14 -7 22
-4 8 -12 38 -18 65 -7 28 -14 57 -16 65 -18 72 -21 90 -15 90 3 0 1 4 -6 8 -6
4 -13 21 -16 37 -3 17 -15 66 -27 110 -12 44 -23 90 -26 102 -2 12 -9 35 -15
50 -6 16 -10 29 -10 31 9 31 1 32 -189 32 l-189 0 -12 -42z m126 -635 c9 -38
18 -75 20 -83 2 -8 20 -80 40 -160 20 -80 38 -153 40 -163 3 -10 7 -27 10 -37
3 -10 8 -27 10 -37 7 -37 36 -148 42 -163 3 -8 7 -24 9 -35 3 -18 11 -56 13
-62 1 -2 1 -5 2 -8 0 -2 7 -28 15 -57 8 -29 17 -64 20 -78 3 -14 9 -38 14 -55
5 -16 12 -41 14 -55 3 -14 14 -59 24 -101 19 -77 17 -99 -12 -124 -20 -16
-107 -145 -99 -145 5 0 3 -4 -3 -8 -30 -19 -129 -255 -163 -389 -11 -41 -22
-77 -25 -80 -4 -4 -399 -7 -469 -4 -11 1 -15 5 -11 13 4 6 8 23 10 37 1 14 3
26 4 26 1 0 3 7 5 15 2 8 11 44 20 80 9 36 18 72 20 80 2 8 8 30 14 48 5 17 8
32 5 32 -3 0 0 9 5 19 6 10 12 35 15 54 2 19 9 44 15 56 7 12 10 21 7 21 -3 0
0 15 5 33 6 17 12 39 14 47 2 8 15 62 30 120 15 58 28 112 30 120 2 8 8 35 15
60 7 25 14 53 16 62 2 10 7 28 10 41 3 12 7 29 9 37 2 8 4 15 5 15 1 0 3 7 5
15 2 8 10 44 19 80 9 36 18 73 21 83 2 10 6 26 9 35 3 9 8 31 11 49 3 18 10
44 15 58 5 14 9 29 8 33 -1 4 4 20 11 36 6 15 11 33 10 40 -1 6 0 18 4 26 6
16 20 69 22 85 1 6 5 17 8 25 4 8 8 29 11 45 2 17 5 30 6 30 2 0 5 12 37 143
15 61 30 112 34 112 4 0 14 -30 24 -67z m875 -1188 c25 -3 51 -6 58 -7 6 -1
12 -5 12 -9 0 -5 6 -6 13 -3 7 2 22 -5 34 -16 12 -11 25 -20 27 -20 15 0 126
-110 126 -124 0 -3 14 -25 30 -49 17 -25 30 -50 30 -55 0 -6 6 -17 13 -24 18
-19 93 -229 103 -288 2 -14 7 -36 11 -50 14 -54 27 -143 28 -187 0 -18 2 -33
5 -33 7 0 10 -78 11 -295 2 -208 -7 -361 -26 -465 -2 -14 -7 -45 -11 -70 -7
-49 -11 -74 -14 -77 -2 -2 -4 -12 -5 -23 -1 -11 -4 -22 -5 -25 -1 -3 -4 -9 -5
-15 -1 -5 -3 -11 -5 -12 -2 -4 -10 -40 -12 -60 -1 -10 -6 -18 -10 -18 -4 0 -8
-10 -8 -22 0 -52 -39 45 -55 137 -2 11 -18 72 -35 135 -17 63 -32 124 -35 135
-2 11 -4 21 -6 23 -1 1 -2 5 -3 10 -2 4 -7 25 -13 47 -6 22 -27 105 -48 185
-20 80 -39 152 -42 160 -3 8 -7 22 -8 30 -2 8 -6 24 -9 35 -5 19 -32 122 -40
155 -2 8 -9 35 -16 60 -7 25 -14 52 -15 60 -2 8 -13 51 -25 95 -12 44 -23 88
-25 98 -2 9 -7 22 -10 28 -4 6 -8 23 -10 37 -3 25 -77 309 -89 342 -3 8 -8 26
-10 40 -3 14 -11 49 -19 78 -8 28 -10 53 -6 53 5 1 13 2 18 3 5 0 12 4 16 7 3
4 14 5 23 3 9 -2 37 -6 62 -9z m-430 -590 c5 -23 10 -47 12 -54 3 -12 -26 -16
-83 -12 -10 1 -8 22 7 106 9 53 11 59 19 90 9 32 8 36 45 -130z m111 -414 c9
-23 49 -187 74 -301 2 -8 4 -15 5 -15 1 0 4 -13 6 -30 3 -16 9 -41 14 -55 8
-23 26 -97 35 -146 2 -11 4 -19 6 -19 1 0 3 -9 5 -20 1 -11 5 -30 8 -42 3 -13
8 -31 10 -40 3 -10 17 -67 31 -127 15 -60 29 -119 32 -130 3 -12 5 -31 6 -43
1 -13 5 -23 10 -23 5 0 8 -10 7 -22 -1 -13 -1 -25 0 -28 17 -47 23 -165 10
-205 -11 -33 -70 -104 -88 -106 -4 0 -18 -2 -32 -4 -14 -2 -41 7 -61 20 -39
25 -109 105 -109 124 0 6 -4 11 -9 11 -10 0 -76 131 -72 144 1 5 -2 12 -8 15
-5 4 -12 18 -14 31 -2 14 -7 32 -10 40 -8 23 -34 145 -43 205 -14 103 -37 380
-35 433 1 6 1 18 1 25 1 6 -1 30 -3 52 -2 22 1 46 6 53 6 8 5 12 -4 12 -11 0
-11 2 1 10 8 5 11 10 5 10 -5 0 -10 20 -10 45 0 25 3 45 7 45 5 0 4 23 -2 40
-5 13 3 56 11 61 5 3 53 5 106 5 91 -1 96 -2 104 -25z m824 -1129 c-1 -26 2
-64 6 -84 10 -57 -6 -66 -27 -14 -11 25 -22 46 -27 46 -4 0 -1 13 8 30 8 16
16 33 16 37 7 50 24 39 24 -15z"/>
<path d="M1600 4696 c-80 -24 -100 -35 -154 -86 -64 -61 -96 -121 -107 -208
-10 -76 -10 -2597 0 -3097 6 -310 7 -333 28 -375 44 -92 130 -164 233 -196 39
-11 371 -6 403 7 21 9 27 18 27 42 l0 30 23 -21 c13 -12 28 -22 34 -22 27 0
114 95 142 154 l30 62 11 334 c32 1003 32 1271 1 2790 l-7 335 -27 57 c-46 94
-127 162 -227 191 -55 17 -357 18 -410 3z m627 -3568 c-3 -8 -6 -5 -6 6 -1 11
2 17 5 13 3 -3 4 -12 1 -19z"/>
<path d="M6927 4671 c-70 -23 -139 -75 -184 -138 -60 -85 -63 -106 -63 -527
-1 -210 -6 -466 -12 -571 -6 -104 -12 -305 -15 -445 -4 -294 -3 -281 -16 -273
-6 4 -8 0 -4 -9 3 -9 0 -21 -6 -27 -13 -13 -19 -43 -6 -35 5 3 9 1 9 -5 0 -5
-5 -11 -12 -13 -8 -3 -7 -6 3 -10 10 -4 15 1 17 18 1 13 -3 24 -9 24 -5 0 -7
5 -4 10 11 17 25 0 25 -28 1 -60 5 -112 10 -112 3 0 4 -55 4 -122 -1 -83 2
-125 10 -130 8 -6 8 -8 -1 -8 -7 0 -13 -5 -13 -11 0 -5 6 -7 13 -3 9 6 9 5 0
-7 -14 -17 -15 -169 -1 -169 5 0 7 4 3 9 -3 5 -1 12 4 15 5 4 8 -2 7 -11 -2
-9 -8 -19 -14 -21 -7 -2 -12 -22 -12 -43 0 -30 3 -38 13 -33 9 6 9 5 0 -7 -13
-17 -6 -109 10 -109 5 0 4 -7 -3 -15 -9 -10 -10 -34 -6 -78 4 -35 8 -232 9
-438 l2 -374 31 -65 c39 -80 119 -162 174 -175 3 -1 19 -8 35 -15 35 -16 381
-25 390 -11 3 5 14 7 25 4 11 -3 20 0 20 6 0 6 3 10 8 10 34 -6 132 52 132 78
0 8 16 31 36 51 49 49 63 80 74 164 6 45 8 714 7 1728 l-2 1655 -23 57 c-32
80 -99 150 -180 190 l-67 33 -180 2 c-154 3 -188 0 -238 -16z m-242 -2301 c3
-5 1 -10 -4 -10 -6 0 -11 5 -11 10 0 6 2 10 4 10 3 0 8 -4 11 -10z m0 -149 c3
-5 2 -12 -3 -15 -5 -3 -9 1 -9 9 0 17 3 19 12 6z m0 -71 c3 -5 1 -10 -4 -10
-6 0 -11 5 -11 10 0 6 2 10 4 10 3 0 8 -4 11 -10z m40 -68 c-3 -3 -11 0 -18 7
-9 10 -8 11 6 5 10 -3 15 -9 12 -12z m-35 -52 c0 -5 -4 -10 -10 -10 -5 0 -10
5 -10 10 0 6 5 10 10 10 6 0 10 -4 10 -10z m-9 -73 c-10 -9 -11 -8 -5 6 3 10
9 15 12 12 3 -3 0 -11 -7 -18z"/>
<path d="M8405 4590 c-11 -4 -31 -20 -45 -35 l-25 -27 -3 -935 -2 -934 21 -30
c24 -34 67 -59 102 -59 13 0 41 11 61 25 l36 25 -19 -38 c-61 -118 -128 -119
-198 -2 l-33 54 -1 316 c-1 173 -5 389 -8 480 l-6 164 -49 19 c-31 11 -53 14
-59 8 -10 -10 8 -1652 19 -1780 l6 -63 34 5 c19 3 63 20 98 37 160 79 294 263
371 511 l26 85 -3 360 -3 359 -48 68 c-27 37 -54 67 -62 67 -10 0 -14 -52 -19
-237 -7 -254 -14 -349 -24 -338 -4 3 -8 416 -9 916 -2 1011 3 945 -68 975 -38
16 -60 17 -90 4z"/>
<path d="M447 4559 c-48 -28 -47 -5 -47 -984 0 -512 -4 -915 -9 -915 -4 0 -13
19 -19 43 -11 44 -32 379 -32 505 0 51 -4 72 -13 72 -6 0 -32 -29 -56 -65
l-44 -64 -5 -354 -5 -354 33 -99 c82 -251 204 -420 361 -500 53 -26 127 -46
134 -35 12 20 22 1703 10 1734 -4 9 -16 17 -26 17 -10 0 -19 5 -19 10 0 6 -6
10 -13 10 -30 0 -35 -57 -42 -490 -7 -430 -7 -435 -30 -481 -29 -56 -77 -99
-112 -99 -16 0 -38 13 -59 36 -36 37 -47 69 -15 40 11 -10 38 -20 60 -23 48
-7 82 12 111 60 19 31 20 55 20 673 0 352 -3 770 -7 929 -6 285 -6 288 -31
316 -21 25 -31 29 -75 29 -29 0 -60 -5 -70 -11z"/>
<path d="M1085 4258 c-112 -39 -203 -117 -258 -223 -20 -40 -21 -50 -25 -1145
-4 -1139 2 -1403 33 -1508 20 -66 80 -134 148 -168 56 -29 185 -50 239 -40
l38 7 2 872 c2 480 2 1175 0 1545 l-2 672 -73 -1 c-39 -1 -85 -6 -102 -11z"/>
<path d="M7688 4178 c-2 -40 -4 -733 -6 -1540 -3 -1450 -2 -1467 17 -1477 11
-6 42 -11 69 -11 39 0 53 5 72 25 24 26 58 32 88 16 26 -13 66 5 57 27 -5 9
-10 32 -13 49 -3 27 1 38 29 64 29 27 38 30 71 25 36 -6 37 -5 47 31 25 90 33
594 27 1592 l-7 1005 -35 57 c-42 69 -125 148 -191 180 -36 17 -70 24 -135 27
l-86 4 -4 -74z m49 -2958 c-2 -11 -6 -22 -9 -26 -4 -3 -5 2 -3 13 2 10 4 21 4
26 1 4 3 7 6 7 3 0 4 -9 2 -20z m80 11 c11 9 14 10 9 2 -4 -7 -16 -18 -28 -24
-15 -8 -19 -8 -14 0 4 6 2 11 -3 11 -6 0 -11 5 -11 11 0 8 5 8 15 -1 12 -10
18 -10 32 1z"/>
<path d="M6564 2880 c0 -13 4 -16 10 -10 7 7 7 13 0 20 -6 6 -10 3 -10 -10z"/>
<path d="M6431 2854 c0 -11 3 -14 6 -6 3 7 2 16 -1 19 -3 4 -6 -2 -5 -13z"/>
<path d="M6605 2787 c1 -45 7 -83 14 -90 9 -9 11 -8 6 4 -4 10 -2 20 4 24 15
9 14 45 -1 45 -9 0 -10 3 -2 8 8 5 6 19 -6 47 l-17 40 2 -78z m25 -51 c0 -3
-4 -8 -10 -11 -5 -3 -10 -1 -10 4 0 6 5 11 10 11 6 0 10 -2 10 -4z"/>
<path d="M6396 2777 c3 -10 9 -15 12 -12 3 3 0 11 -7 18 -10 9 -11 8 -5 -6z"/>
<path d="M6575 2730 c3 -5 8 -10 11 -10 2 0 4 5 4 10 0 6 -5 10 -11 10 -5 0
-7 -4 -4 -10z"/>
<path d="M6430 2640 c-9 -6 -10 -10 -3 -10 6 0 15 5 18 10 8 12 4 12 -15 0z"/>
<path d="M6620 2588 c0 -4 5 -8 11 -8 5 0 7 -6 3 -12 -4 -7 -3 -9 1 -5 15 13
14 34 -1 34 -8 0 -14 -4 -14 -9z"/>
<path d="M6432 2550 c0 -14 2 -19 5 -12 2 6 2 18 0 25 -3 6 -5 1 -5 -13z"/>
<path d="M6615 2541 c-6 -11 13 -26 22 -17 4 3 1 6 -6 6 -7 0 -9 5 -6 10 3 6
4 10 1 10 -3 0 -7 -4 -11 -9z"/>
</g>
</svg>
